# xmcd
#
# Track frame offsets:
#	150
#	14939
#	28137
#	50089
#	69487
#	84061
#	103076
#	120532
#	139698
#	155904
#	179490
#	198131
#	225372
#
# Disc length: 3585 seconds
#
# Revision: 1
# Processed by: cddbd v1.5.1PL0 Copyright (c) Steve Scherf et al.
# Submitted via: audiograbber 1.82.01
#
DISCID=b00dff0d
DTITLE=АЛЕКСАНДР РАПОПОРТ - Не оставляйте женщину одну...
DYEAR=2004
DGENRE=Chanson
TTITLE0=Цветной бульвар
TTITLE1=Для тебя
TTITLE2=Домой
TTITLE3=Ты одинока
TTITLE4=Здравствуй, мой друг
TTITLE5=Pina-Colada
TTITLE6=Любимая
TTITLE7=Калиостро
TTITLE8=Не оставляйте женщину одну
TTITLE9=Право на ошибку
TTITLE10=Модильяни
TTITLE11=Не покидай, любовь, меня
TTITLE12=Видеоклипы: 1.Барселона, 2.Модильяни
EXTD=от Калиостро... ...до Модильяни...
EXTT0=
EXTT1=
EXTT2=
EXTT3=
EXTT4=
EXTT5=
EXTT6=
EXTT7=
EXTT8=
EXTT9=
EXTT10=
EXTT11=
EXTT12=
PLAYORDER=
